%TF.GenerationSoftware,KiCad,Pcbnew,8.0.5*%
%TF.CreationDate,2025-04-25T02:38:47-05:00*%
%TF.ProjectId,327_project_pcb,3332375f-7072-46f6-9a65-63745f706362,rev?*%
%TF.SameCoordinates,Original*%
%TF.FileFunction,Soldermask,Top*%
%TF.FilePolarity,Negative*%
%FSLAX46Y46*%
G04 Gerber Fmt 4.6, Leading zero omitted, Abs format (unit mm)*
G04 Created by KiCad (PCBNEW 8.0.5) date 2025-04-25 02:38:47*
%MOMM*%
%LPD*%
G01*
G04 APERTURE LIST*
G04 Aperture macros list*
%AMRoundRect*
0 Rectangle with rounded corners*
0 $1 Rounding radius*
0 $2 $3 $4 $5 $6 $7 $8 $9 X,Y pos of 4 corners*
0 Add a 4 corners polygon primitive as box body*
4,1,4,$2,$3,$4,$5,$6,$7,$8,$9,$2,$3,0*
0 Add four circle primitives for the rounded corners*
1,1,$1+$1,$2,$3*
1,1,$1+$1,$4,$5*
1,1,$1+$1,$6,$7*
1,1,$1+$1,$8,$9*
0 Add four rect primitives between the rounded corners*
20,1,$1+$1,$2,$3,$4,$5,0*
20,1,$1+$1,$4,$5,$6,$7,0*
20,1,$1+$1,$6,$7,$8,$9,0*
20,1,$1+$1,$8,$9,$2,$3,0*%
G04 Aperture macros list end*
%ADD10C,4.400000*%
%ADD11RoundRect,0.250000X0.350000X0.450000X-0.350000X0.450000X-0.350000X-0.450000X0.350000X-0.450000X0*%
%ADD12R,1.700000X1.700000*%
%ADD13O,1.700000X1.700000*%
%ADD14R,1.425000X0.300000*%
%ADD15R,1.200000X1.200000*%
%ADD16C,1.200000*%
%ADD17R,1.600000X1.600000*%
%ADD18C,1.600000*%
%ADD19RoundRect,0.250000X0.475000X-0.337500X0.475000X0.337500X-0.475000X0.337500X-0.475000X-0.337500X0*%
%ADD20RoundRect,0.250000X1.100000X-0.412500X1.100000X0.412500X-1.100000X0.412500X-1.100000X-0.412500X0*%
%ADD21R,0.600000X0.300000*%
%ADD22R,0.300000X0.600000*%
G04 APERTURE END LIST*
D10*
%TO.C,REF\u002A\u002A*%
X165000000Y-115000000D03*
%TD*%
%TO.C,REF\u002A\u002A*%
X165000000Y-90000000D03*
%TD*%
%TO.C,REF\u002A\u002A*%
X217500000Y-90000000D03*
%TD*%
%TO.C,REF\u002A\u002A*%
X217500000Y-115000000D03*
%TD*%
D11*
%TO.C,R1*%
X182650000Y-101500000D03*
X180650000Y-101500000D03*
%TD*%
D12*
%TO.C,J4*%
X192825000Y-106350000D03*
D13*
X190285000Y-106350000D03*
X187745000Y-106350000D03*
%TD*%
D12*
%TO.C,J3*%
X190350000Y-110000000D03*
D13*
X192890000Y-110000000D03*
%TD*%
D12*
%TO.C,J2*%
X177425000Y-106025000D03*
D13*
X177425000Y-103485000D03*
X177425000Y-100945000D03*
X177425000Y-98405000D03*
X177425000Y-95865000D03*
%TD*%
D12*
%TO.C,J1*%
X181650000Y-95850000D03*
D13*
X181650000Y-98390000D03*
%TD*%
D14*
%TO.C,IC1*%
X193362000Y-101875000D03*
X193362000Y-101375000D03*
X193362000Y-100875000D03*
X193362000Y-100375000D03*
X193362000Y-99875000D03*
X193362000Y-99375000D03*
X193362000Y-98875000D03*
X193362000Y-98375000D03*
X193362000Y-97875000D03*
X193362000Y-97375000D03*
X193362000Y-96875000D03*
X193362000Y-96375000D03*
X193362000Y-95875000D03*
X193362000Y-95375000D03*
X188938000Y-95375000D03*
X188938000Y-95875000D03*
X188938000Y-96375000D03*
X188938000Y-96875000D03*
X188938000Y-97375000D03*
X188938000Y-97875000D03*
X188938000Y-98375000D03*
X188938000Y-98875000D03*
X188938000Y-99375000D03*
X188938000Y-99875000D03*
X188938000Y-100375000D03*
X188938000Y-100875000D03*
X188938000Y-101375000D03*
X188938000Y-101875000D03*
%TD*%
D15*
%TO.C,C6*%
X215400000Y-104650000D03*
D16*
X213400000Y-104650000D03*
%TD*%
D15*
%TO.C,C5*%
X215450000Y-98250000D03*
D16*
X213450000Y-98250000D03*
%TD*%
D17*
%TO.C,C4*%
X208955113Y-105050000D03*
D18*
X206455113Y-105050000D03*
%TD*%
D19*
%TO.C,C3*%
X198750000Y-100050000D03*
X198750000Y-97975000D03*
%TD*%
D20*
%TO.C,C2*%
X201650000Y-100650000D03*
X201650000Y-97525000D03*
%TD*%
D19*
%TO.C,C1*%
X196100000Y-102325000D03*
X196100000Y-100250000D03*
%TD*%
D21*
%TO.C,AC1*%
X206350000Y-97350000D03*
X206350000Y-97850000D03*
X206350000Y-98350000D03*
X206350000Y-98850000D03*
D22*
X207000000Y-99000000D03*
X207500000Y-99000000D03*
X208000000Y-99000000D03*
D21*
X208650000Y-98850000D03*
X208650000Y-98350000D03*
X208650000Y-97850000D03*
X208650000Y-97350000D03*
D22*
X208000000Y-97200000D03*
X207500000Y-97200000D03*
X207000000Y-97200000D03*
%TD*%
M02*
