%TF.GenerationSoftware,KiCad,Pcbnew,8.0.5*%
%TF.CreationDate,2025-04-25T02:38:47-05:00*%
%TF.ProjectId,327_project_pcb,3332375f-7072-46f6-9a65-63745f706362,rev?*%
%TF.SameCoordinates,Original*%
%TF.FileFunction,Copper,L2,Bot*%
%TF.FilePolarity,Positive*%
%FSLAX46Y46*%
G04 Gerber Fmt 4.6, Leading zero omitted, Abs format (unit mm)*
G04 Created by KiCad (PCBNEW 8.0.5) date 2025-04-25 02:38:47*
%MOMM*%
%LPD*%
G01*
G04 APERTURE LIST*
%TA.AperFunction,ComponentPad*%
%ADD10C,4.400000*%
%TD*%
%TA.AperFunction,ComponentPad*%
%ADD11R,1.700000X1.700000*%
%TD*%
%TA.AperFunction,ComponentPad*%
%ADD12O,1.700000X1.700000*%
%TD*%
%TA.AperFunction,ComponentPad*%
%ADD13R,1.200000X1.200000*%
%TD*%
%TA.AperFunction,ComponentPad*%
%ADD14C,1.200000*%
%TD*%
%TA.AperFunction,ComponentPad*%
%ADD15R,1.600000X1.600000*%
%TD*%
%TA.AperFunction,ComponentPad*%
%ADD16C,1.600000*%
%TD*%
%TA.AperFunction,ViaPad*%
%ADD17C,0.660400*%
%TD*%
%TA.AperFunction,Conductor*%
%ADD18C,0.203200*%
%TD*%
G04 APERTURE END LIST*
D10*
%TO.P,REF\u002A\u002A,1*%
%TO.N,N/C*%
X165000000Y-115000000D03*
%TD*%
%TO.P,REF\u002A\u002A,1*%
%TO.N,N/C*%
X165000000Y-90000000D03*
%TD*%
%TO.P,REF\u002A\u002A,1*%
%TO.N,N/C*%
X217500000Y-90000000D03*
%TD*%
%TO.P,REF\u002A\u002A,1*%
%TO.N,N/C*%
X217500000Y-115000000D03*
%TD*%
D11*
%TO.P,J4,1,Pin_1*%
%TO.N,+5V*%
X192825000Y-106350000D03*
D12*
%TO.P,J4,2,Pin_2*%
%TO.N,GND*%
X190285000Y-106350000D03*
%TO.P,J4,3,Pin_3*%
%TO.N,SPI1_PICO*%
X187745000Y-106350000D03*
%TD*%
D11*
%TO.P,J3,1,Pin_1*%
%TO.N,GND*%
X190350000Y-110000000D03*
D12*
%TO.P,J3,2,Pin_2*%
%TO.N,+5V*%
X192890000Y-110000000D03*
%TD*%
D11*
%TO.P,J2,1,Pin_1*%
%TO.N,SWCLK*%
X177425000Y-106025000D03*
D12*
%TO.P,J2,2,Pin_2*%
%TO.N,SWDIO*%
X177425000Y-103485000D03*
%TO.P,J2,3,Pin_3*%
%TO.N,NRST*%
X177425000Y-100945000D03*
%TO.P,J2,4,Pin_4*%
%TO.N,+3.3V*%
X177425000Y-98405000D03*
%TO.P,J2,5,Pin_5*%
%TO.N,GND*%
X177425000Y-95865000D03*
%TD*%
D11*
%TO.P,J1,1,Pin_1*%
%TO.N,GND*%
X181650000Y-95850000D03*
D12*
%TO.P,J1,2,Pin_2*%
%TO.N,+3.3V*%
X181650000Y-98390000D03*
%TD*%
D13*
%TO.P,C6,1*%
%TO.N,+3.3V*%
X215400000Y-104650000D03*
D14*
%TO.P,C6,2*%
%TO.N,GND*%
X213400000Y-104650000D03*
%TD*%
D13*
%TO.P,C5,1*%
%TO.N,+3.3V*%
X215450000Y-98250000D03*
D14*
%TO.P,C5,2*%
%TO.N,GND*%
X213450000Y-98250000D03*
%TD*%
D15*
%TO.P,C4,1*%
%TO.N,GND*%
X208955113Y-105050000D03*
D16*
%TO.P,C4,2*%
%TO.N,+3.3V*%
X206455113Y-105050000D03*
%TD*%
D17*
%TO.N,NRST*%
X180600000Y-102850000D03*
X186350000Y-103750000D03*
%TO.N,+3.3V*%
X200150000Y-102450000D03*
%TO.N,GND*%
X197450000Y-96900000D03*
X204050000Y-97500000D03*
X196200000Y-103695200D03*
%TO.N,SPI1_PICO*%
X186800000Y-98240000D03*
%TD*%
D18*
%TO.N,GND*%
X201554800Y-103695200D02*
X205900000Y-99350000D01*
X196200000Y-103695200D02*
X201554800Y-103695200D01*
%TO.N,+3.3V*%
X182410000Y-98390000D02*
X181650000Y-98390000D01*
X193700000Y-97150000D02*
X183650000Y-97150000D01*
X200150000Y-102450000D02*
X199000000Y-102450000D01*
X183650000Y-97150000D02*
X182410000Y-98390000D01*
X199000000Y-102450000D02*
X193700000Y-97150000D01*
%TO.N,NRST*%
X180600000Y-102850000D02*
X181500000Y-103750000D01*
X181500000Y-103750000D02*
X186350000Y-103750000D01*
%TO.N,GND*%
X196400000Y-95850000D02*
X197450000Y-96900000D01*
X181650000Y-95850000D02*
X196400000Y-95850000D01*
X205900000Y-99350000D02*
X213450000Y-99350000D01*
X213450000Y-99350000D02*
X213450000Y-101650000D01*
X213450000Y-98250000D02*
X213450000Y-99350000D01*
X204050000Y-97500000D02*
X205900000Y-99350000D01*
X213450000Y-101650000D02*
X213450000Y-104600000D01*
%TO.N,+3.3V*%
X215400000Y-105900000D02*
X215400000Y-104650000D01*
X207650000Y-107250000D02*
X214050000Y-107250000D01*
X214050000Y-107250000D02*
X215400000Y-105900000D01*
X206455113Y-106055113D02*
X207650000Y-107250000D01*
X206455113Y-105050000D02*
X206455113Y-106055113D01*
%TO.N,GND*%
X196200000Y-103695200D02*
X192939800Y-103695200D01*
X213450000Y-104600000D02*
X213400000Y-104650000D01*
X192939800Y-103695200D02*
X190285000Y-106350000D01*
%TO.N,SPI1_PICO*%
X187745000Y-99185000D02*
X186800000Y-98240000D01*
X187745000Y-106350000D02*
X187745000Y-99185000D01*
%TD*%
M02*
