%TF.GenerationSoftware,KiCad,Pcbnew,8.0.5*%
%TF.CreationDate,2025-04-25T02:38:47-05:00*%
%TF.ProjectId,327_project_pcb,3332375f-7072-46f6-9a65-63745f706362,rev?*%
%TF.SameCoordinates,Original*%
%TF.FileFunction,Copper,L1,Top*%
%TF.FilePolarity,Positive*%
%FSLAX46Y46*%
G04 Gerber Fmt 4.6, Leading zero omitted, Abs format (unit mm)*
G04 Created by KiCad (PCBNEW 8.0.5) date 2025-04-25 02:38:47*
%MOMM*%
%LPD*%
G01*
G04 APERTURE LIST*
G04 Aperture macros list*
%AMRoundRect*
0 Rectangle with rounded corners*
0 $1 Rounding radius*
0 $2 $3 $4 $5 $6 $7 $8 $9 X,Y pos of 4 corners*
0 Add a 4 corners polygon primitive as box body*
4,1,4,$2,$3,$4,$5,$6,$7,$8,$9,$2,$3,0*
0 Add four circle primitives for the rounded corners*
1,1,$1+$1,$2,$3*
1,1,$1+$1,$4,$5*
1,1,$1+$1,$6,$7*
1,1,$1+$1,$8,$9*
0 Add four rect primitives between the rounded corners*
20,1,$1+$1,$2,$3,$4,$5,0*
20,1,$1+$1,$4,$5,$6,$7,0*
20,1,$1+$1,$6,$7,$8,$9,0*
20,1,$1+$1,$8,$9,$2,$3,0*%
G04 Aperture macros list end*
%TA.AperFunction,ComponentPad*%
%ADD10C,4.400000*%
%TD*%
%TA.AperFunction,SMDPad,CuDef*%
%ADD11RoundRect,0.250000X0.350000X0.450000X-0.350000X0.450000X-0.350000X-0.450000X0.350000X-0.450000X0*%
%TD*%
%TA.AperFunction,ComponentPad*%
%ADD12R,1.700000X1.700000*%
%TD*%
%TA.AperFunction,ComponentPad*%
%ADD13O,1.700000X1.700000*%
%TD*%
%TA.AperFunction,SMDPad,CuDef*%
%ADD14R,1.425000X0.300000*%
%TD*%
%TA.AperFunction,ComponentPad*%
%ADD15R,1.200000X1.200000*%
%TD*%
%TA.AperFunction,ComponentPad*%
%ADD16C,1.200000*%
%TD*%
%TA.AperFunction,ComponentPad*%
%ADD17R,1.600000X1.600000*%
%TD*%
%TA.AperFunction,ComponentPad*%
%ADD18C,1.600000*%
%TD*%
%TA.AperFunction,SMDPad,CuDef*%
%ADD19RoundRect,0.250000X0.475000X-0.337500X0.475000X0.337500X-0.475000X0.337500X-0.475000X-0.337500X0*%
%TD*%
%TA.AperFunction,SMDPad,CuDef*%
%ADD20RoundRect,0.250000X1.100000X-0.412500X1.100000X0.412500X-1.100000X0.412500X-1.100000X-0.412500X0*%
%TD*%
%TA.AperFunction,SMDPad,CuDef*%
%ADD21R,0.600000X0.300000*%
%TD*%
%TA.AperFunction,SMDPad,CuDef*%
%ADD22R,0.300000X0.600000*%
%TD*%
%TA.AperFunction,ViaPad*%
%ADD23C,0.660400*%
%TD*%
%TA.AperFunction,Conductor*%
%ADD24C,0.203200*%
%TD*%
%TA.AperFunction,Conductor*%
%ADD25C,0.600000*%
%TD*%
G04 APERTURE END LIST*
D10*
%TO.P,REF\u002A\u002A,1*%
%TO.N,N/C*%
X165000000Y-115000000D03*
%TD*%
%TO.P,REF\u002A\u002A,1*%
%TO.N,N/C*%
X165000000Y-90000000D03*
%TD*%
%TO.P,REF\u002A\u002A,1*%
%TO.N,N/C*%
X217500000Y-90000000D03*
%TD*%
%TO.P,REF\u002A\u002A,1*%
%TO.N,N/C*%
X217500000Y-115000000D03*
%TD*%
D11*
%TO.P,R1,1*%
%TO.N,+3.3V*%
X182650000Y-101500000D03*
%TO.P,R1,2*%
%TO.N,NRST*%
X180650000Y-101500000D03*
%TD*%
D12*
%TO.P,J4,1,Pin_1*%
%TO.N,+5V*%
X192825000Y-106350000D03*
D13*
%TO.P,J4,2,Pin_2*%
%TO.N,GND*%
X190285000Y-106350000D03*
%TO.P,J4,3,Pin_3*%
%TO.N,SPI1_PICO*%
X187745000Y-106350000D03*
%TD*%
D12*
%TO.P,J3,1,Pin_1*%
%TO.N,GND*%
X190350000Y-110000000D03*
D13*
%TO.P,J3,2,Pin_2*%
%TO.N,+5V*%
X192890000Y-110000000D03*
%TD*%
D12*
%TO.P,J2,1,Pin_1*%
%TO.N,SWCLK*%
X177425000Y-106025000D03*
D13*
%TO.P,J2,2,Pin_2*%
%TO.N,SWDIO*%
X177425000Y-103485000D03*
%TO.P,J2,3,Pin_3*%
%TO.N,NRST*%
X177425000Y-100945000D03*
%TO.P,J2,4,Pin_4*%
%TO.N,+3.3V*%
X177425000Y-98405000D03*
%TO.P,J2,5,Pin_5*%
%TO.N,GND*%
X177425000Y-95865000D03*
%TD*%
D12*
%TO.P,J1,1,Pin_1*%
%TO.N,GND*%
X181650000Y-95850000D03*
D13*
%TO.P,J1,2,Pin_2*%
%TO.N,+3.3V*%
X181650000Y-98390000D03*
%TD*%
D14*
%TO.P,IC1,1,PA26_/_A0_1*%
%TO.N,unconnected-(IC1-PA26_{slash}_A0_1-Pad1)*%
X193362000Y-101875000D03*
%TO.P,IC1,2,PA27_/_RTC_OUT_/_A0_0*%
%TO.N,unconnected-(IC1-PA27_{slash}_RTC_OUT_{slash}_A0_0-Pad2)*%
X193362000Y-101375000D03*
%TO.P,IC1,3,VCORE*%
%TO.N,unconnected-(IC1-VCORE-Pad3)*%
X193362000Y-100875000D03*
%TO.P,IC1,4,PA0*%
%TO.N,unconnected-(IC1-PA0-Pad4)*%
X193362000Y-100375000D03*
%TO.P,IC1,5,PA1*%
%TO.N,unconnected-(IC1-PA1-Pad5)*%
X193362000Y-99875000D03*
%TO.P,IC1,6,NRST*%
%TO.N,NRST*%
X193362000Y-99375000D03*
%TO.P,IC1,7,VDD*%
%TO.N,+3.3V*%
X193362000Y-98875000D03*
%TO.P,IC1,8,VSS*%
%TO.N,GND*%
X193362000Y-98375000D03*
%TO.P,IC1,9,PA2_/_ROSC*%
%TO.N,unconnected-(IC1-PA2_{slash}_ROSC-Pad9)*%
X193362000Y-97875000D03*
%TO.P,IC1,10,PA3_/_LFXIN*%
%TO.N,unconnected-(IC1-PA3_{slash}_LFXIN-Pad10)*%
X193362000Y-97375000D03*
%TO.P,IC1,11,PA4_/_LFCLK_IN_/_LFXOUT*%
%TO.N,SPI0_POCI*%
X193362000Y-96875000D03*
%TO.P,IC1,12,PA5_/_HFXIN_/_FCC_IN*%
%TO.N,SPI0_PICO*%
X193362000Y-96375000D03*
%TO.P,IC1,13,PA6_/_HFCLK_IN_/_HFXOUT*%
%TO.N,SPI0_SCK*%
X193362000Y-95875000D03*
%TO.P,IC1,14,PA9_/_RTC_OUT_/_CLK_OUT*%
%TO.N,unconnected-(IC1-PA9_{slash}_RTC_OUT_{slash}_CLK_OUT-Pad14)*%
X193362000Y-95375000D03*
%TO.P,IC1,15,PA10_/_CLK_OUT*%
%TO.N,unconnected-(IC1-PA10_{slash}_CLK_OUT-Pad15)*%
X188938000Y-95375000D03*
%TO.P,IC1,16,PA11*%
%TO.N,unconnected-(IC1-PA11-Pad16)*%
X188938000Y-95875000D03*
%TO.P,IC1,17,PA14_/_CLK_OUT_/_A0_12*%
%TO.N,unconnected-(IC1-PA14_{slash}_CLK_OUT_{slash}_A0_12-Pad17)*%
X188938000Y-96375000D03*
%TO.P,IC1,18,PA15_/_A1_0*%
%TO.N,unconnected-(IC1-PA15_{slash}_A1_0-Pad18)*%
X188938000Y-96875000D03*
%TO.P,IC1,19,PA16_/_A1_1_/_FCC_IN*%
%TO.N,unconnected-(IC1-PA16_{slash}_A1_1_{slash}_FCC_IN-Pad19)*%
X188938000Y-97375000D03*
%TO.P,IC1,20,PA17_/_A1_2*%
%TO.N,unconnected-(IC1-PA17_{slash}_A1_2-Pad20)*%
X188938000Y-97875000D03*
%TO.P,IC1,21,PA18_/_A1_3*%
%TO.N,SPI1_PICO*%
X188938000Y-98375000D03*
%TO.P,IC1,22,PA19_/_SWDIO*%
%TO.N,SWDIO*%
X188938000Y-98875000D03*
%TO.P,IC1,23,PA20_/_SWCLK*%
%TO.N,SWCLK*%
X188938000Y-99375000D03*
%TO.P,IC1,24,PA21_/_A1_7_/_VREF-*%
%TO.N,unconnected-(IC1-PA21_{slash}_A1_7_{slash}_VREF--Pad24)*%
X188938000Y-99875000D03*
%TO.P,IC1,25,PA22_/_CLK_OUT_/_A0_7*%
%TO.N,unconnected-(IC1-PA22_{slash}_CLK_OUT_{slash}_A0_7-Pad25)*%
X188938000Y-100375000D03*
%TO.P,IC1,26,PA23_/_VREF+*%
%TO.N,unconnected-(IC1-PA23_{slash}_VREF+-Pad26)*%
X188938000Y-100875000D03*
%TO.P,IC1,27,PA24_/_A0_3*%
%TO.N,unconnected-(IC1-PA24_{slash}_A0_3-Pad27)*%
X188938000Y-101375000D03*
%TO.P,IC1,28,PA25_/_A0_2*%
%TO.N,unconnected-(IC1-PA25_{slash}_A0_2-Pad28)*%
X188938000Y-101875000D03*
%TD*%
D15*
%TO.P,C6,1*%
%TO.N,+3.3V*%
X215400000Y-104650000D03*
D16*
%TO.P,C6,2*%
%TO.N,GND*%
X213400000Y-104650000D03*
%TD*%
D15*
%TO.P,C5,1*%
%TO.N,+3.3V*%
X215450000Y-98250000D03*
D16*
%TO.P,C5,2*%
%TO.N,GND*%
X213450000Y-98250000D03*
%TD*%
D17*
%TO.P,C4,1*%
%TO.N,GND*%
X208955113Y-105050000D03*
D18*
%TO.P,C4,2*%
%TO.N,+3.3V*%
X206455113Y-105050000D03*
%TD*%
D19*
%TO.P,C3,1*%
%TO.N,+3.3V*%
X198750000Y-100050000D03*
%TO.P,C3,2*%
%TO.N,GND*%
X198750000Y-97975000D03*
%TD*%
D20*
%TO.P,C2,1*%
%TO.N,+3.3V*%
X201650000Y-100650000D03*
%TO.P,C2,2*%
%TO.N,GND*%
X201650000Y-97525000D03*
%TD*%
D19*
%TO.P,C1,1*%
%TO.N,GND*%
X196100000Y-102325000D03*
%TO.P,C1,2*%
%TO.N,NRST*%
X196100000Y-100250000D03*
%TD*%
D21*
%TO.P,AC1,1,AP_SDO_/_AP_AD0*%
%TO.N,SPI0_POCI*%
X206350000Y-97350000D03*
%TO.P,AC1,2,RESV_1*%
%TO.N,unconnected-(AC1-RESV_1-Pad2)*%
X206350000Y-97850000D03*
%TO.P,AC1,3,RESV_2*%
%TO.N,unconnected-(AC1-RESV_2-Pad3)*%
X206350000Y-98350000D03*
%TO.P,AC1,4,INT1_/_INT*%
%TO.N,unconnected-(AC1-INT1_{slash}_INT-Pad4)*%
X206350000Y-98850000D03*
D22*
%TO.P,AC1,5,VDDIO*%
%TO.N,+3.3V*%
X207000000Y-99000000D03*
%TO.P,AC1,6,GND*%
%TO.N,GND*%
X207500000Y-99000000D03*
%TO.P,AC1,7,RESV_3*%
X208000000Y-99000000D03*
D21*
%TO.P,AC1,8,VDD*%
%TO.N,+3.3V*%
X208650000Y-98850000D03*
%TO.P,AC1,9,INT2_/_FSYNC*%
%TO.N,GND*%
X208650000Y-98350000D03*
%TO.P,AC1,10,RESV_4*%
%TO.N,unconnected-(AC1-RESV_4-Pad10)*%
X208650000Y-97850000D03*
%TO.P,AC1,11,RESV_5*%
%TO.N,unconnected-(AC1-RESV_5-Pad11)*%
X208650000Y-97350000D03*
D22*
%TO.P,AC1,12,AP_CS*%
%TO.N,+3.3V*%
X208000000Y-97200000D03*
%TO.P,AC1,13,AP_SCL_/_AP_SCLK*%
%TO.N,SPI0_SCK*%
X207500000Y-97200000D03*
%TO.P,AC1,14,AP_SDA_/_AP_SDIO_/_AP_SDI*%
%TO.N,SPI0_PICO*%
X207000000Y-97200000D03*
%TD*%
D23*
%TO.N,NRST*%
X180600000Y-102850000D03*
X186350000Y-103750000D03*
%TO.N,+3.3V*%
X200150000Y-102450000D03*
%TO.N,GND*%
X197450000Y-96900000D03*
X204050000Y-97500000D03*
X196200000Y-103695200D03*
%TO.N,SPI1_PICO*%
X186800000Y-98240000D03*
%TD*%
D24*
%TO.N,NRST*%
X196350000Y-100250000D02*
X196100000Y-100250000D01*
X197700000Y-103950000D02*
X197700000Y-101600000D01*
X197700000Y-101600000D02*
X196350000Y-100250000D01*
X195400000Y-104550000D02*
X197100000Y-104550000D01*
X194600000Y-103750000D02*
X195400000Y-104550000D01*
X186350000Y-103750000D02*
X194600000Y-103750000D01*
X197100000Y-104550000D02*
X197700000Y-103950000D01*
%TO.N,+3.3V*%
X208000000Y-95600000D02*
X214000000Y-95600000D01*
X215450000Y-97050000D02*
X215450000Y-98250000D01*
X208000000Y-97200000D02*
X208000000Y-95600000D01*
X214000000Y-95600000D02*
X215450000Y-97050000D01*
%TO.N,GND*%
X207500000Y-99000000D02*
X208000000Y-99000000D01*
%TO.N,+3.3V*%
X199300000Y-100600000D02*
X198750000Y-100050000D01*
X199300000Y-101600000D02*
X199300000Y-100600000D01*
X200150000Y-102450000D02*
X199300000Y-101600000D01*
%TO.N,NRST*%
X180650000Y-101500000D02*
X180650000Y-102800000D01*
X180650000Y-102800000D02*
X180600000Y-102850000D01*
%TO.N,GND*%
X197675000Y-96900000D02*
X198750000Y-97975000D01*
X197450000Y-96900000D02*
X197675000Y-96900000D01*
%TO.N,+3.3V*%
X206050000Y-105050000D02*
X206455113Y-105050000D01*
X201650000Y-100650000D02*
X206050000Y-105050000D01*
%TO.N,GND*%
X204025000Y-97525000D02*
X204050000Y-97500000D01*
X201650000Y-97525000D02*
X204025000Y-97525000D01*
%TO.N,+3.3V*%
X198750000Y-100050000D02*
X197575000Y-98875000D01*
X197575000Y-98875000D02*
X193362000Y-98875000D01*
X201050000Y-100050000D02*
X201650000Y-100650000D01*
X198750000Y-100050000D02*
X201050000Y-100050000D01*
%TO.N,GND*%
X198350000Y-98375000D02*
X193362000Y-98375000D01*
X198750000Y-97975000D02*
X198350000Y-98375000D01*
X199200000Y-97525000D02*
X198750000Y-97975000D01*
X201650000Y-97525000D02*
X199200000Y-97525000D01*
%TO.N,SWCLK*%
X187225000Y-99375000D02*
X188938000Y-99375000D01*
X186700000Y-99900000D02*
X187225000Y-99375000D01*
X186700000Y-101550000D02*
X186700000Y-99900000D01*
X182225000Y-106025000D02*
X186700000Y-101550000D01*
X177425000Y-106025000D02*
X182225000Y-106025000D01*
%TO.N,SWDIO*%
X185825000Y-98875000D02*
X188938000Y-98875000D01*
X184800000Y-102100000D02*
X184800000Y-99900000D01*
X184800000Y-99900000D02*
X185825000Y-98875000D01*
X183415000Y-103485000D02*
X184800000Y-102100000D01*
X177425000Y-103485000D02*
X183415000Y-103485000D01*
%TO.N,+3.3V*%
X182650000Y-99390000D02*
X181650000Y-98390000D01*
X182650000Y-101500000D02*
X182650000Y-99390000D01*
%TO.N,SPI0_SCK*%
X195647800Y-94852200D02*
X194625000Y-95875000D01*
X194625000Y-95875000D02*
X193362000Y-95875000D01*
X206354174Y-94852200D02*
X195647800Y-94852200D01*
X207500000Y-95998026D02*
X206354174Y-94852200D01*
X207500000Y-97200000D02*
X207500000Y-95998026D01*
%TO.N,SPI0_PICO*%
X194925000Y-96375000D02*
X193362000Y-96375000D01*
X196041400Y-95258600D02*
X194925000Y-96375000D01*
X207000000Y-96940400D02*
X205318200Y-95258600D01*
X207000000Y-97200000D02*
X207000000Y-96940400D01*
X205318200Y-95258600D02*
X196041400Y-95258600D01*
%TO.N,SPI0_POCI*%
X196535000Y-95665000D02*
X195325000Y-96875000D01*
X195325000Y-96875000D02*
X193362000Y-96875000D01*
X204665000Y-95665000D02*
X196535000Y-95665000D01*
X206350000Y-97350000D02*
X204665000Y-95665000D01*
%TO.N,NRST*%
X195675000Y-99375000D02*
X193362000Y-99375000D01*
X196150000Y-99850000D02*
X195675000Y-99375000D01*
%TO.N,GND*%
X196200000Y-101975000D02*
X196150000Y-101925000D01*
X196200000Y-103695200D02*
X196200000Y-101975000D01*
%TO.N,+3.3V*%
X215450000Y-100350000D02*
X215450000Y-98250000D01*
X213050000Y-100350000D02*
X215450000Y-100350000D01*
X209450000Y-99650000D02*
X212350000Y-99650000D01*
X208650000Y-98850000D02*
X209450000Y-99650000D01*
X212350000Y-99650000D02*
X213050000Y-100350000D01*
%TO.N,GND*%
X213350000Y-98350000D02*
X208650000Y-98350000D01*
X213450000Y-98250000D02*
X213350000Y-98350000D01*
%TO.N,+3.3V*%
X215450000Y-104600000D02*
X215400000Y-104650000D01*
X215450000Y-98250000D02*
X215450000Y-104600000D01*
%TO.N,GND*%
X213000000Y-105050000D02*
X213400000Y-104650000D01*
X208955113Y-105050000D02*
X213000000Y-105050000D01*
X208000000Y-104094887D02*
X208000000Y-99000000D01*
X208955113Y-105050000D02*
X208000000Y-104094887D01*
%TO.N,+3.3V*%
X207000000Y-104505113D02*
X207000000Y-99000000D01*
X206455113Y-105050000D02*
X207000000Y-104505113D01*
D25*
%TO.N,+5V*%
X192890000Y-106415000D02*
X192825000Y-106350000D01*
X192890000Y-110000000D02*
X192890000Y-106415000D01*
%TO.N,GND*%
X190285000Y-109935000D02*
X190350000Y-110000000D01*
X190285000Y-106350000D02*
X190285000Y-109935000D01*
D24*
%TO.N,SPI1_PICO*%
X186800000Y-98240000D02*
X186935000Y-98375000D01*
X186935000Y-98375000D02*
X188938000Y-98375000D01*
%TO.N,GND*%
X177425000Y-95865000D02*
X181635000Y-95865000D01*
X181635000Y-95865000D02*
X181650000Y-95850000D01*
%TO.N,+3.3V*%
X177440000Y-98390000D02*
X177425000Y-98405000D01*
X181650000Y-98390000D02*
X177440000Y-98390000D01*
%TO.N,NRST*%
X177980000Y-101500000D02*
X177425000Y-100945000D01*
X180650000Y-101500000D02*
X177980000Y-101500000D01*
%TD*%
M02*
