M48
; DRILL file {KiCad 8.0.5} date 2025-04-25T02:38:41-0500
; FORMAT={-:-/ absolute / inch / decimal}
; #@! TF.CreationDate,2025-04-25T02:38:41-05:00
; #@! TF.GenerationSoftware,Kicad,Pcbnew,8.0.5
; #@! TF.FileFunction,Plated,1,2,PTH
FMAT,2
INCH
; #@! TA.AperFunction,Plated,PTH,ViaDrill
T1C0.0100
; #@! TA.AperFunction,Plated,PTH,ComponentDrill
T2C0.0236
; #@! TA.AperFunction,Plated,PTH,ComponentDrill
T3C0.0315
; #@! TA.AperFunction,Plated,PTH,ComponentDrill
T4C0.0394
; #@! TA.AperFunction,Plated,PTH,ComponentDrill
T5C0.0866
%
G90
G05
T1
X7.1102Y-4.0492
X7.3366Y-4.0846
X7.3543Y-3.8677
X7.7244Y-4.0825
X7.7736Y-3.815
X7.8799Y-4.0335
X8.0335Y-3.8386
T2
X8.4016Y-4.1201
X8.4035Y-3.8681
X8.4803Y-4.1201
X8.4823Y-3.8681
T3
X8.1282Y-4.1358
X8.2266Y-4.1358
T4
X6.9852Y-3.7742
X6.9852Y-3.8742
X6.9852Y-3.9742
X6.9852Y-4.0742
X6.9852Y-4.1742
X7.1516Y-3.7736
X7.1516Y-3.8736
X7.3915Y-4.187
X7.4915Y-4.187
X7.4941Y-4.3307
X7.5915Y-4.187
X7.5941Y-4.3307
T5
X6.4961Y-3.5433
X6.4961Y-4.5276
X8.563Y-3.5433
X8.563Y-4.5276
M30
